<svg width="30" height="29" fill="none" xmlns="http://www.w3.org/2000/svg"><rect x="1.412" y=".625" width="27.249" height="27.249" rx="3.5" stroke="#fff"/><path d="M21.645 16.564c1.364 1.321 1.648 1.967 1.694 2.047.562.98-.625 1.056-.625 1.056l-2.274.035s-.49.1-1.133-.363c-.852-.61-2.016-2.198-2.64-1.991-.634.209-.432 1.875-.432 1.875s.005.203-.138.367c-.159.173-.466.107-.466.107h-.655s-2.427.01-4.407-2.145c-2.157-2.35-3.96-6.742-3.96-6.742s-.11-.278.007-.427c.136-.166.502-.164.502-.164H9.55s.228.032.392.159c.138.103.212.3.212.3s.294.817.816 1.76c1.016 1.838 1.489 2.24 1.834 2.042.502-.289.35-2.598.35-2.598s.011-.84-.252-1.213c-.205-.291-.586-.376-.755-.4-.138-.015.087-.35.378-.497.438-.223 1.213-.239 2.126-.228.711.008.98-.003.98-.003.84.212.555 1.033.555 2.992 0 .63-.11 1.515.325 1.806.187.13.857.149 1.995-1.877.543-.961.97-1.864.97-1.864s.092-.204.227-.289c.144-.09.333-.09.333-.09l2.56.013s.77-.1.893.265c.13.382-.314 1.049-1.358 2.508-1.719 2.396-1.91 2.174-.486 3.559z" fill="#fff"/></svg>