<svg width="30" height="31" fill="none" xmlns="http://www.w3.org/2000/svg"><path fill-rule="evenodd" clip-rule="evenodd" d="M13.11 8.294c-.134-.646-.394-.708-.63-.763a14.897 14.897 0 00-.636-.13c-.22-.042-.597-.023-.97.28-.374.298-1.399 1-1.736 2.764-.336 1.761.531 3.694.65 3.964.121.268 1.541 4.41 4.642 6.49 2.579 1.729 3.196 1.602 3.814 1.659.622.054 2.133-.492 2.569-1.276.436-.782.572-1.5.52-1.665-.054-.166-.259-.297-.558-.54-.297-.244-1.765-1.42-2.048-1.6-.28-.175-.491-.277-.781.038-.29.314-1.081 1-1.321 1.203-.24.201-.437.194-.737-.046-.297-.244-1.294-.826-2.33-2.289-.806-1.138-1.25-2.437-1.375-2.834-.126-.394.083-.556.285-.704.18-.13.413-.355.62-.532.204-.178.287-.315.445-.533.155-.218.14-.438.093-.633-.048-.196-.355-2.089-.516-2.853z" fill="#fff"/><path d="M4.25 24.283l.473.158.089-.264-.179-.214-.384.32zm-1.698 5.09l-.474-.158-.28.838.863-.192-.109-.488zm6.38-1.417l.218-.45-.156-.076-.17.038.108.488zm19.8-12.707c0 7.525-6.1 13.625-13.624 13.625v1c8.076 0 14.624-6.548 14.624-14.625h-1zM15.108 1.625c7.524 0 13.624 6.1 13.624 13.624h1c0-8.077-6.547-14.624-14.624-14.624v1zM1.483 15.249c0-7.524 6.1-13.624 13.625-13.624v-1C7.03.625.483 7.172.483 15.249h1zm3.15 8.714a13.567 13.567 0 01-3.15-8.714h-1c0 3.557 1.27 6.819 3.382 9.354l.768-.64zm-1.606 5.569l1.696-5.09-.948-.317-1.697 5.09.949.317zm5.796-2.064l-6.379 1.417.217.976 6.379-1.417-.217-.976zm6.285 1.406a13.57 13.57 0 01-5.958-1.368l-.437.9a14.568 14.568 0 006.395 1.468v-1z" fill="#fff"/></svg>